<?xml version="1.0" encoding="utf-8"?>
<!-- Generator: Adobe Illustrator 24.0.1, SVG Export Plug-In . SVG Version: 6.00 Build 0)  -->
<svg version="1.1" id="Layer_1" xmlns="http://www.w3.org/2000/svg" xmlns:xlink="http://www.w3.org/1999/xlink" x="0px" y="0px"
	 viewBox="0 0 40 40" style="enable-background:new 0 0 40 40;" xml:space="preserve">
<style type="text/css">
	.st0{fill-rule:evenodd;clip-rule:evenodd;fill:#FFFFFF;stroke:#E64C41;stroke-width:1.5;stroke-miterlimit:10;}
</style>
<path class="st0" d="M35.98,16.63c0,2.38-0.92,4.6-2.91,6.97c-1.77,2.13-4.32,4.32-7.28,6.84c-1.09,0.95-2.23,1.92-3.44,2.99
	l-0.04,0.03c-0.16,0.14-0.35,0.21-0.55,0.21c-0.2,0-0.39-0.07-0.55-0.21l-0.04-0.03c-1.21-1.07-2.35-2.04-3.44-2.99
	c-2.96-2.53-5.51-4.72-7.28-6.84c-1.99-2.37-2.91-4.59-2.91-6.97c0-2.19,0.74-4.23,2.07-5.76c1.41-1.61,3.35-2.49,5.49-2.49
	c3,0,4.89,1.81,5.96,3.31c0.28,0.39,0.51,0.78,0.71,1.16c0.2-0.37,0.43-0.77,0.71-1.16c1.06-1.51,2.96-3.31,5.96-3.31
	c2.14,0,4.08,0.88,5.49,2.49C35.24,12.4,35.98,14.44,35.98,16.63z"/>
</svg>
