<?xml version="1.0" encoding="utf-8"?>
<!-- Generator: Adobe Illustrator 14.0.0, SVG Export Plug-In . SVG Version: 6.00 Build 43363)  -->
<!DOCTYPE svg PUBLIC "-//W3C//DTD SVG 1.1//EN" "http://www.w3.org/Graphics/SVG/1.1/DTD/svg11.dtd">
<svg version="1.1" id="Layer_1" xmlns="http://www.w3.org/2000/svg" xmlns:xlink="http://www.w3.org/1999/xlink" x="0px" y="0px"
	 width="250px" height="133px" viewBox="0 0 250 133" enable-background="new 0 0 250 133" xml:space="preserve">
<g>
	<g>
		<defs>
			<rect id="SVGID_1_" x="5" y="5.095" width="240" height="122.811"/>
		</defs>
		<clipPath id="SVGID_2_">
			<use xlink:href="#SVGID_1_"  overflow="visible"/>
		</clipPath>
		<path clip-path="url(#SVGID_2_)" fill="#231F20" d="M127.223,19.178c0.145,0.722,2.723,3.017,3.444,4.167
			c0.712,1.15,5.61-0.243,7.467,1.15c0,0,4.043,2.125,0.856,5.311c-0.567,0.573-3.362-0.902-9.045,0.717
			c-1,0.289-4.321-0.051-4.734,3.306c-0.145,1.15-0.732,6.461,3.877,6.461c1.001,0,3.878,0.716,2.867-3.161
			c0,0,0.454-1.929,5.456,0.578c0.577,0.283,7.828,4.584,14.645,3.444c0.866-0.145,2.826-0.397,6.322-3.017
			c0,0,12.324,16.744,28.001,14.506c1.01-0.145,9.509-3.445,14.934,5.6c0.433,0.717,3.135,19.301,20.533,28
			c0.577,0.289-0.712,9.128,2.3,13.645c0.578,0.861,2.155,1.897,4.6,0.429c0.712-0.429-0.629-2.615,2.155-6.317l-2.732-11.489
			c0,0-8.519-4.027-7.322-11.2c0.144-0.861-0.042-15.784-5.312-22.117c-0.722-0.861,10.932-6.456,13.066-21.395
			c0.145-1.006,4.848-8.122,14.501-15.367c0,0,6.477-7.24-5.022-5.6c-1.011,0.144-9.787,7.725-12.634,21.972
			c-0.145,0.717-5.508,18.121-19.967,14.506c-0.577-0.145-10.169-0.676-18.667-7.756c-0.855-0.717-14.81-13.526-30.589-22.545
			c-1.001-0.577-6.601-5.027-12.778-5.027c-0.856,0,0.454-1.568-1.867-2.728c-1.145-0.572-0.433,1.005-2.155,1.722
			c-1.722,0.722-1.434-0.861-1.434-0.861l-1.289,2.3c0,0-4.373,1.609-4.744,3.444c-0.145,0.717,0.145,1.15-1,2.156
			C130.956,14.011,127.078,18.461,127.223,19.178"/>
		<path clip-path="url(#SVGID_2_)" fill="none" stroke="#231F20" stroke-width="0.0308" stroke-miterlimit="3.8637" d="
			M127.223,19.178c0.145,0.722,2.723,3.017,3.444,4.167c0.712,1.15,5.61-0.243,7.467,1.15c0,0,4.043,2.125,0.856,5.311
			c-0.567,0.573-3.362-0.902-9.045,0.717c-1,0.289-4.321-0.051-4.734,3.306c-0.145,1.15-0.732,6.461,3.877,6.461
			c1.001,0,3.878,0.716,2.867-3.161c0,0,0.454-1.929,5.456,0.578c0.577,0.283,7.828,4.584,14.645,3.444
			c0.866-0.145,2.826-0.397,6.322-3.017c0,0,12.324,16.744,28.001,14.506c1.01-0.145,9.509-3.445,14.934,5.6
			c0.433,0.717,3.135,19.301,20.533,28c0.577,0.289-0.712,9.128,2.3,13.645c0.578,0.861,2.155,1.897,4.6,0.429
			c0.712-0.429-0.629-2.615,2.155-6.317l-2.732-11.489c0,0-8.519-4.027-7.322-11.2c0.144-0.861-0.042-15.784-5.312-22.117
			c-0.722-0.861,10.932-6.456,13.066-21.395c0.145-1.006,4.848-8.122,14.501-15.367c0,0,6.477-7.24-5.022-5.6
			c-1.011,0.144-9.787,7.725-12.634,21.972c-0.145,0.717-5.508,18.121-19.967,14.506c-0.577-0.145-10.169-0.676-18.667-7.756
			c-0.855-0.717-14.81-13.526-30.589-22.545c-1.001-0.577-6.601-5.027-12.778-5.027c-0.856,0,0.454-1.568-1.867-2.728
			c-1.145-0.572-0.433,1.005-2.155,1.722c-1.722,0.722-1.434-0.861-1.434-0.861l-1.289,2.3c0,0-4.373,1.609-4.744,3.444
			c-0.145,0.717,0.145,1.15-1,2.156C130.956,14.011,127.078,18.461,127.223,19.178z"/>
	</g>
	<path fill="#231F20" d="M49.1,124.724c0,1.665,1.351,3.017,3.011,3.017h32.167c1.67,0,3.021-1.352,3.021-3.017V70.444
		c0-1.665-1.351-3.016-3.021-3.016H71.5v49.256c0,1.665-1.351,3.017-3.012,3.017c-1.67,0-3.021-1.352-3.021-3.017V67.428H52.111
		c-1.66,0-3.011,1.351-3.011,3.016V124.724"/>
	<g>
		<defs>
			<rect id="SVGID_3_" x="5" y="5.095" width="240" height="122.811"/>
		</defs>
		<clipPath id="SVGID_4_">
			<use xlink:href="#SVGID_3_"  overflow="visible"/>
		</clipPath>
		<path clip-path="url(#SVGID_4_)" fill="none" stroke="#231F20" stroke-width="0.0617" stroke-miterlimit="3.8637" d="
			M49.1,124.724c0,1.665,1.351,3.017,3.011,3.017h32.167c1.67,0,3.021-1.352,3.021-3.017V70.444c0-1.665-1.351-3.016-3.021-3.016
			H71.5v49.256c0,1.665-1.351,3.017-3.012,3.017c-1.67,0-3.021-1.352-3.021-3.017V67.428H52.111c-1.66,0-3.011,1.351-3.011,3.016
			V124.724z"/>
	</g>
	<path fill="#231F20" d="M151.057,70.444c0-1.665-1.352-3.016-3.012-3.016H95.767c-1.661,0-3.012,1.351-3.012,3.016v54.279
		c0,1.665,1.351,3.017,3.012,3.017h9.767c1.671,0,3.022-1.352,3.022-3.017V78.484c0-1.661,1.34-3.012,3.011-3.012
		c1.661,0,3.012,1.351,3.012,3.012v46.239c0,1.665,1.351,3.017,3.021,3.017h9.189c1.661,0,3.012-1.352,3.012-3.017V78.448
		c0-1.666,1.352-3.012,3.021-3.012c1.661,0,3.012,1.346,3.012,3.012v46.348c0,1.665,1.424,3.017,3.084,3.017h9.199
		c1.66,0,3.012-1.352,3.012-3.017L151.057,70.444"/>
	<g>
		<defs>
			<rect id="SVGID_5_" x="5" y="5.095" width="240" height="122.811"/>
		</defs>
		<clipPath id="SVGID_6_">
			<use xlink:href="#SVGID_5_"  overflow="visible"/>
		</clipPath>
		<path clip-path="url(#SVGID_6_)" fill="none" stroke="#231F20" stroke-width="0.0617" stroke-miterlimit="3.8637" d="
			M151.057,70.444c0-1.665-1.352-3.016-3.012-3.016H95.767c-1.661,0-3.012,1.351-3.012,3.016v54.279
			c0,1.665,1.351,3.017,3.012,3.017h9.767c1.671,0,3.022-1.352,3.022-3.017V78.484c0-1.661,1.351-3.012,3.011-3.012
			c1.661,0,3.012,1.351,3.012,3.012v46.239c0,1.665,1.351,3.017,3.021,3.017h9.189c1.661,0,3.012-1.352,3.012-3.017V78.448
			c0-1.666,1.352-3.012,3.021-3.012c1.661,0,3.012,1.346,3.012,3.012v46.348c0,1.665,1.424,3.017,3.084,3.017h9.199
			c1.66,0,3.012-1.352,3.012-3.017L151.057,70.444z"/>
	</g>
	<path fill-rule="evenodd" clip-rule="evenodd" fill="#231F20" d="M5.155,70.444c0-1.665,1.351-3.016,3.021-3.016h31.59
		c1.671,0,3.011,1.351,3.011,3.016v38.484c0,1.666-1.34,3.017-3.011,3.017H25.121c-1.67,0-3.021,1.352-3.021,3.017v12.778H5.155
		V70.444 M28.133,102.323c0,1.665-1.351,3.017-3.012,3.017c-1.67,0-3.021-1.352-3.021-3.017V77.339c0-1.665,1.351-3.017,3.021-3.017
		c1.661,0,3.012,1.352,3.012,3.017V102.323z"/>
	<g>
		<defs>
			<rect id="SVGID_7_" x="5" y="5.095" width="240" height="122.811"/>
		</defs>
		<clipPath id="SVGID_8_">
			<use xlink:href="#SVGID_7_"  overflow="visible"/>
		</clipPath>
		<path clip-path="url(#SVGID_8_)" fill="none" stroke="#FFFFFF" stroke-width="0.0617" stroke-miterlimit="3.8637" d="
			M5.155,70.444c0-1.665,1.351-3.016,3.021-3.016h31.59c1.671,0,3.011,1.351,3.011,3.016v38.484c0,1.666-1.34,3.017-3.011,3.017
			H25.121c-1.67,0-3.021,1.352-3.021,3.017v12.778H5.155V70.444z M28.133,102.323c0,1.665-1.351,3.017-3.012,3.017
			c-1.67,0-3.021-1.352-3.021-3.017V77.339c0-1.665,1.351-3.017,3.021-3.017c1.661,0,3.012,1.352,3.012,3.017V102.323z"/>
	</g>
	<path fill-rule="evenodd" clip-rule="evenodd" fill="#231F20" d="M178.469,114.101l0.011,10.623c0,1.665,1.351,3.017,3.021,3.017
		h10.324c1.67,0,3.011-1.352,3.011-3.017V70.444c0-1.665-1.341-3.016-3.011-3.016h-32.167c-1.661,0-3.012,1.351-3.012,3.016v54.279
		c0,1.665,1.351,3.017,3.012,3.017h9.776c1.671,0,3.094-1.352,3.094-3.017l0.011-10.633c0-1.666,1.351-3.012,3.021-3.012
		c1.661,0,3.012,1.346,3.012,3.012L178.469,114.101 M178.572,102.391c0,1.665-1.351,3.017-3.012,3.017
		c-1.671,0-3.021-1.352-3.021-3.017l-0.104-23.906c0-1.661,1.352-3.012,3.022-3.012c1.66,0,3.011,1.351,3.011,3.012L178.572,102.391
		z"/>
	<g>
		<defs>
			<rect id="SVGID_9_" x="5" y="5.095" width="240" height="122.811"/>
		</defs>
		<clipPath id="SVGID_10_">
			<use xlink:href="#SVGID_9_"  overflow="visible"/>
		</clipPath>
		<path clip-path="url(#SVGID_10_)" fill="none" stroke="#FFFFFF" stroke-width="0.0617" stroke-miterlimit="3.8637" d="
			M178.469,114.101l0.011,10.623c0,1.665,1.351,3.017,3.021,3.017h10.324c1.67,0,3.011-1.352,3.011-3.017V70.444
			c0-1.665-1.341-3.016-3.011-3.016h-32.167c-1.661,0-3.012,1.351-3.012,3.016v54.279c0,1.665,1.351,3.017,3.012,3.017h9.776
			c1.671,0,3.094-1.352,3.094-3.017l0.011-10.633c0-1.666,1.351-3.012,3.021-3.012c1.661,0,3.012,1.346,3.012,3.012L178.469,114.101
			z M178.572,102.391c0,1.665-1.351,3.017-3.012,3.017c-1.671,0-3.021-1.352-3.021-3.017l-0.104-23.906
			c0-1.661,1.352-3.012,3.022-3.012c1.66,0,3.011,1.351,3.011,3.012L178.572,102.391z"/>
	</g>
</g>
</svg>
